<svg xmlns="http://www.w3.org/2000/svg" viewBox="0 0 1200 628" width="1200" height="628">
  <!-- Font: Comic Neue (hand-drawn). Install it, or swap font-family below to your marker font. -->
  <style>.hd{font-family:'Comic Neue','Comic Sans MS',cursive;font-weight:700}</style>
  <rect width="1200" height="628" fill="#ffffff"/>
  <text class="hd" x="70" y="100" font-size="50" fill="#17181d">the compounding hour</text>
  <circle cx="188" cy="452" r="12" fill="#9792E3" stroke="#17181d" stroke-width="3"/>
  <path d="M198,458 C 420,492 700,556 1010,586" fill="none" stroke="#731DD8" stroke-width="9" stroke-linecap="round" stroke-dasharray="1 28"/>
  <text class="hd" x="430" y="560" font-size="46" fill="#731DD8">melts</text>
  <path d="M188,452 C 380,450 470,440 560,418 C 690,386 760,312 828,260 C 908,200 980,176 1040,152" fill="none" stroke="#45e388" stroke-width="16" stroke-linecap="round"/>
  <path d="M188,452 C 380,450 470,440 560,418 C 690,386 760,312 828,260 C 908,200 980,176 1040,152" fill="none" stroke="#17181d" stroke-width="2.5" stroke-linecap="round" opacity="0.92"/>
  <text class="hd" x="560" y="198" font-size="50" fill="#17181d">compounds</text>
  <g stroke="#731DD8" stroke-width="5" stroke-linecap="round">
    <line x1="1062" y1="128" x2="1080" y2="110"/><line x1="1052" y1="120" x2="1052" y2="96"/><line x1="1042" y1="128" x2="1024" y2="110"/>
  </g>
</svg>
